<mxfile host="app.diagrams.net" modified="2024-08-13T22:21:35.389Z" agent="Mozilla/5.0 (Windows NT 10.0; Win64; x64) AppleWebKit/537.36 (KHTML, like Gecko) Chrome/127.0.0.0 Safari/537.36" version="24.5.2" etag="xeK-BO3jUOtsIj8ryhjy" type="github">
  <diagram name="PÃ¡gina-1" id="uod3fX4rJm5GojL-mXqh">
    <mxGraphModel>
      <root>
        <mxCell id="0" />
        <mxCell id="1" parent="0" />
      </root>
    </mxGraphModel>
  </diagram>
</mxfile>
